<svg width="35" height="35" viewBox="0 0 35 35" fill="none" xmlns="http://www.w3.org/2000/svg">
<path fill-rule="evenodd" clip-rule="evenodd" d="M31.4792 4.81781H20.3995V2.20703L2.1875 5.01797V29.6569L20.3995 32.7938V28.9241H31.4792C31.8148 28.9411 32.1434 28.8245 32.3933 28.5999C32.6431 28.3752 32.7938 28.0608 32.8125 27.7253V6.01547C32.7936 5.68019 32.6427 5.36604 32.3929 5.14163C32.1431 4.91722 31.8146 4.80081 31.4792 4.81781ZM31.6542 27.9244H20.3623L20.3438 25.8583H23.0639V23.452H20.323L20.3098 22.0302H23.0639V19.6239H20.2891L20.2759 18.202H23.0639V15.7958H20.2672V14.3739H23.0639V11.9677H20.2672V10.5458H23.0639V8.13953H20.2672V5.95203H31.6542V27.9244Z" fill="#20744A"/>
<path d="M24.5952 8.13623H29.3235V10.5425H24.5952V8.13623Z" fill="#20744A"/>
<path d="M24.5952 11.9658H29.3235V14.3721H24.5952V11.9658Z" fill="#20744A"/>
<path d="M24.5952 15.7949H29.3235V18.2012H24.5952V15.7949Z" fill="#20744A"/>
<path d="M24.5952 19.624H29.3235V22.0303H24.5952V19.624Z" fill="#20744A"/>
<path d="M24.5952 23.4531H29.3235V25.8594H24.5952V23.4531Z" fill="#20744A"/>
<path fill-rule="evenodd" clip-rule="evenodd" d="M6.94246 11.6737L9.28965 11.5392L10.7651 15.5959L12.5086 11.3718L14.8557 11.2373L12.0054 16.997L14.8557 22.7709L12.374 22.6036L10.6984 18.2023L9.02168 22.4362L6.74121 22.235L9.39027 17.1348L6.94246 11.6737Z" fill="white"/>
</svg>
